<svg width="141" height="44" viewBox="0 0 141 44" fill="none" xmlns="http://www.w3.org/2000/svg">
<path d="M62.2969 6.44922L56.6484 22H54.3398L60.8438 4.9375H62.332L62.2969 6.44922ZM67.0312 22L61.3711 6.44922L61.3359 4.9375H62.8242L69.3516 22H67.0312ZM66.7383 15.6836V17.5352H57.1523V15.6836H66.7383ZM72.8316 4.9375H75.023L80.6128 18.8477L86.1909 4.9375H88.3941L81.4566 22H79.7456L72.8316 4.9375ZM72.1167 4.9375H74.0503L74.3667 15.3438V22H72.1167V4.9375ZM87.1636 4.9375H89.0972V22H86.8472V15.3438L87.1636 4.9375ZM92.6475 15.8008V15.5312C92.6475 14.6172 92.7803 13.7695 93.0459 12.9883C93.3116 12.1992 93.6944 11.5156 94.1944 10.9375C94.6944 10.3516 95.2998 9.89844 96.0108 9.57812C96.7217 9.25 97.5186 9.08594 98.4014 9.08594C99.292 9.08594 100.093 9.25 100.804 9.57812C101.522 9.89844 102.132 10.3516 102.632 10.9375C103.14 11.5156 103.526 12.1992 103.792 12.9883C104.058 13.7695 104.19 14.6172 104.19 15.5312V15.8008C104.19 16.7148 104.058 17.5625 103.792 18.3438C103.526 19.125 103.14 19.8086 102.632 20.3945C102.132 20.9727 101.526 21.4258 100.815 21.7539C100.112 22.0742 99.3155 22.2344 98.4248 22.2344C97.5342 22.2344 96.7334 22.0742 96.0225 21.7539C95.3116 21.4258 94.7022 20.9727 94.1944 20.3945C93.6944 19.8086 93.3116 19.125 93.0459 18.3438C92.7803 17.5625 92.6475 16.7148 92.6475 15.8008ZM94.8155 15.5312V15.8008C94.8155 16.4336 94.8897 17.0312 95.0381 17.5938C95.1866 18.1484 95.4092 18.6406 95.7061 19.0703C96.0108 19.5 96.3897 19.8398 96.8428 20.0898C97.2959 20.332 97.8233 20.4531 98.4248 20.4531C99.0186 20.4531 99.5381 20.332 99.9834 20.0898C100.437 19.8398 100.812 19.5 101.108 19.0703C101.405 18.6406 101.628 18.1484 101.776 17.5938C101.933 17.0312 102.011 16.4336 102.011 15.8008V15.5312C102.011 14.9062 101.933 14.3164 101.776 13.7617C101.628 13.1992 101.401 12.7031 101.097 12.2734C100.8 11.8359 100.425 11.4922 99.9717 11.2422C99.5264 10.9922 99.003 10.8672 98.4014 10.8672C97.8077 10.8672 97.2842 10.9922 96.8311 11.2422C96.3858 11.4922 96.0108 11.8359 95.7061 12.2734C95.4092 12.7031 95.1866 13.1992 95.0381 13.7617C94.8897 14.3164 94.8155 14.9062 94.8155 15.5312ZM109.557 12.0273V22H107.389V9.32031H109.44L109.557 12.0273ZM109.042 15.1797L108.139 15.1445C108.147 14.2773 108.276 13.4766 108.526 12.7422C108.776 12 109.127 11.3555 109.581 10.8086C110.034 10.2617 110.573 9.83984 111.198 9.54297C111.831 9.23828 112.53 9.08594 113.295 9.08594C113.92 9.08594 114.483 9.17188 114.983 9.34375C115.483 9.50781 115.909 9.77344 116.26 10.1406C116.62 10.5078 116.893 10.9844 117.081 11.5703C117.268 12.1484 117.362 12.8555 117.362 13.6914V22H115.182V13.668C115.182 13.0039 115.085 12.4727 114.889 12.0742C114.694 11.668 114.409 11.375 114.034 11.1953C113.659 11.0078 113.198 10.9141 112.651 10.9141C112.112 10.9141 111.62 11.0273 111.174 11.2539C110.737 11.4805 110.358 11.793 110.038 12.1914C109.725 12.5898 109.479 13.0469 109.299 13.5625C109.127 14.0703 109.042 14.6094 109.042 15.1797ZM130.557 17.6875C130.557 17.2891 130.494 16.9375 130.369 16.6328C130.252 16.3203 130.041 16.0391 129.736 15.7891C129.44 15.5391 129.025 15.3008 128.494 15.0742C127.971 14.8477 127.307 14.6172 126.502 14.3828C125.658 14.1328 124.897 13.8555 124.217 13.5508C123.537 13.2383 122.955 12.8828 122.471 12.4844C121.986 12.0859 121.615 11.6289 121.357 11.1133C121.1 10.5977 120.971 10.0078 120.971 9.34375C120.971 8.67969 121.107 8.06641 121.381 7.50391C121.654 6.94141 122.045 6.45312 122.553 6.03906C123.068 5.61719 123.682 5.28906 124.393 5.05469C125.104 4.82031 125.897 4.70312 126.772 4.70312C128.053 4.70312 129.139 4.94922 130.029 5.44141C130.928 5.92578 131.611 6.5625 132.08 7.35156C132.549 8.13281 132.783 8.96875 132.783 9.85938H130.533C130.533 9.21875 130.397 8.65234 130.123 8.16016C129.85 7.66016 129.436 7.26953 128.881 6.98828C128.326 6.69922 127.623 6.55469 126.772 6.55469C125.967 6.55469 125.303 6.67578 124.779 6.91797C124.256 7.16016 123.865 7.48828 123.607 7.90234C123.357 8.31641 123.232 8.78906 123.232 9.32031C123.232 9.67969 123.307 10.0078 123.455 10.3047C123.611 10.5938 123.85 10.8633 124.17 11.1133C124.498 11.3633 124.912 11.5938 125.412 11.8047C125.92 12.0156 126.525 12.2188 127.229 12.4141C128.197 12.6875 129.033 12.9922 129.736 13.3281C130.44 13.6641 131.018 14.043 131.471 14.4648C131.932 14.8789 132.272 15.3516 132.49 15.8828C132.717 16.4062 132.83 17 132.83 17.6641C132.83 18.3594 132.69 18.9883 132.408 19.5508C132.127 20.1133 131.725 20.5938 131.201 20.9922C130.678 21.3906 130.049 21.6992 129.315 21.918C128.588 22.1289 127.775 22.2344 126.877 22.2344C126.088 22.2344 125.311 22.125 124.545 21.9062C123.787 21.6875 123.096 21.3594 122.471 20.9219C121.854 20.4844 121.357 19.9453 120.982 19.3047C120.615 18.6562 120.432 17.9062 120.432 17.0547H122.682C122.682 17.6406 122.795 18.1445 123.022 18.5664C123.248 18.9805 123.557 19.3242 123.947 19.5977C124.346 19.8711 124.795 20.0742 125.295 20.207C125.803 20.332 126.33 20.3945 126.877 20.3945C127.666 20.3945 128.334 20.2852 128.881 20.0664C129.428 19.8477 129.842 19.5352 130.123 19.1289C130.412 18.7227 130.557 18.2422 130.557 17.6875Z" fill="#030303"/>
<circle cx="26.5" cy="7.5" r="6.5" fill="#FF5252"/>
<circle cx="39.5" cy="20.5" r="6.5" fill="#2BD601"/>
<circle cx="13.5" cy="20.5" r="6.5" fill="#585FFF"/>
<path d="M3.45703 34.5205L1.10352 41H0.141602L2.85156 33.8906H3.47168L3.45703 34.5205ZM5.42969 41L3.07129 34.5205L3.05664 33.8906H3.67676L6.39648 41H5.42969ZM5.30762 38.3682V39.1396H1.31348V38.3682H5.30762ZM8.31523 36.5469V41H7.41191V35.7168H8.29082L8.31523 36.5469ZM9.96562 35.6875L9.96074 36.5273C9.88587 36.5111 9.81426 36.5013 9.7459 36.498C9.68079 36.4915 9.60592 36.4883 9.52129 36.4883C9.31296 36.4883 9.12904 36.5208 8.96953 36.5859C8.81003 36.651 8.67493 36.7422 8.56426 36.8594C8.45358 36.9766 8.36569 37.1165 8.30059 37.2793C8.23874 37.4388 8.19805 37.6146 8.17852 37.8066L7.92461 37.9531C7.92461 37.6341 7.95553 37.3346 8.01738 37.0547C8.08249 36.7747 8.18177 36.5273 8.31523 36.3125C8.4487 36.0944 8.61797 35.9251 8.82305 35.8047C9.03138 35.681 9.27878 35.6191 9.56523 35.6191C9.63034 35.6191 9.70521 35.6273 9.78984 35.6436C9.87448 35.6566 9.93307 35.6712 9.96562 35.6875ZM11.9039 36.5469V41H11.0006V35.7168H11.8795L11.9039 36.5469ZM13.5543 35.6875L13.5494 36.5273C13.4745 36.5111 13.4029 36.5013 13.3346 36.498C13.2695 36.4915 13.1946 36.4883 13.11 36.4883C12.9016 36.4883 12.7177 36.5208 12.5582 36.5859C12.3987 36.651 12.2636 36.7422 12.1529 36.8594C12.0423 36.9766 11.9544 37.1165 11.8893 37.2793C11.8274 37.4388 11.7867 37.6146 11.7672 37.8066L11.5133 37.9531C11.5133 37.6341 11.5442 37.3346 11.6061 37.0547C11.6712 36.7747 11.7704 36.5273 11.9039 36.3125C12.0374 36.0944 12.2066 35.9251 12.4117 35.8047C12.6201 35.681 12.8674 35.6191 13.1539 35.6191C13.219 35.6191 13.2939 35.6273 13.3785 35.6436C13.4632 35.6566 13.5217 35.6712 13.5543 35.6875ZM15.4926 33.5V41H14.5893V33.5H15.4926ZM15.2777 38.1582L14.9018 38.1436C14.905 37.7822 14.9587 37.4486 15.0629 37.1426C15.1671 36.8333 15.3135 36.5648 15.5023 36.3369C15.6911 36.109 15.9158 35.9333 16.1762 35.8096C16.4398 35.6826 16.7312 35.6191 17.0502 35.6191C17.3106 35.6191 17.545 35.6549 17.7533 35.7266C17.9617 35.7949 18.1391 35.9056 18.2855 36.0586C18.4353 36.2116 18.5492 36.4102 18.6273 36.6543C18.7055 36.8952 18.7445 37.1898 18.7445 37.5381V41H17.8363V37.5283C17.8363 37.2516 17.7956 37.0303 17.7143 36.8643C17.6329 36.695 17.5141 36.5729 17.3578 36.498C17.2016 36.4199 17.0095 36.3809 16.7816 36.3809C16.557 36.3809 16.352 36.4281 16.1664 36.5225C15.9841 36.6169 15.8262 36.7471 15.6928 36.9131C15.5626 37.0791 15.46 37.2695 15.3852 37.4844C15.3135 37.696 15.2777 37.9206 15.2777 38.1582ZM21.7814 40.4531L23.2512 35.7168H24.218L22.0988 41.8154C22.05 41.9456 21.9849 42.0856 21.9035 42.2354C21.8254 42.3883 21.7245 42.5332 21.6008 42.6699C21.4771 42.8066 21.3273 42.9173 21.1516 43.002C20.979 43.0898 20.7723 43.1338 20.5314 43.1338C20.4598 43.1338 20.3687 43.124 20.258 43.1045C20.1473 43.085 20.0692 43.0687 20.0236 43.0557L20.0187 42.3232C20.0448 42.3265 20.0855 42.3298 20.1408 42.333C20.1994 42.3395 20.2401 42.3428 20.2629 42.3428C20.468 42.3428 20.6421 42.3151 20.7854 42.2598C20.9286 42.2077 21.049 42.1182 21.1467 41.9912C21.2476 41.8675 21.3339 41.6966 21.4055 41.4785L21.7814 40.4531ZM20.7023 35.7168L22.0744 39.8184L22.3088 40.7705L21.6594 41.1025L19.716 35.7168H20.7023ZM27.4453 35.7168V36.4102H24.5889V35.7168H27.4453ZM25.5557 34.4326H26.459V39.6914C26.459 39.8704 26.4867 40.0055 26.542 40.0967C26.5973 40.1878 26.6689 40.248 26.7568 40.2773C26.8447 40.3066 26.9391 40.3213 27.04 40.3213C27.1149 40.3213 27.193 40.3148 27.2744 40.3018C27.359 40.2855 27.4225 40.2725 27.4648 40.2627L27.4697 41C27.3981 41.0228 27.3037 41.0439 27.1865 41.0635C27.0726 41.0863 26.9342 41.0977 26.7715 41.0977C26.5501 41.0977 26.3467 41.0537 26.1611 40.9658C25.9756 40.8779 25.8275 40.7314 25.7168 40.5264C25.6094 40.318 25.5557 40.0381 25.5557 39.6865V34.4326ZM29.6082 33.5V41H28.7049V33.5H29.6082ZM29.3934 38.1582L29.0174 38.1436C29.0206 37.7822 29.0743 37.4486 29.1785 37.1426C29.2827 36.8333 29.4292 36.5648 29.618 36.3369C29.8068 36.109 30.0314 35.9333 30.2918 35.8096C30.5555 35.6826 30.8468 35.6191 31.1658 35.6191C31.4262 35.6191 31.6606 35.6549 31.8689 35.7266C32.0773 35.7949 32.2547 35.9056 32.4012 36.0586C32.5509 36.2116 32.6648 36.4102 32.743 36.6543C32.8211 36.8952 32.8602 37.1898 32.8602 37.5381V41H31.952V37.5283C31.952 37.2516 31.9113 37.0303 31.8299 36.8643C31.7485 36.695 31.6297 36.5729 31.4734 36.498C31.3172 36.4199 31.1251 36.3809 30.8973 36.3809C30.6727 36.3809 30.4676 36.4281 30.282 36.5225C30.0997 36.6169 29.9419 36.7471 29.8084 36.9131C29.6782 37.0791 29.5757 37.2695 29.5008 37.4844C29.4292 37.696 29.3934 37.9206 29.3934 38.1582ZM35.3111 36.7666V41H34.4029V35.7168H35.2623L35.3111 36.7666ZM35.1256 38.1582L34.7057 38.1436C34.7089 37.7822 34.7561 37.4486 34.8473 37.1426C34.9384 36.8333 35.0735 36.5648 35.2525 36.3369C35.4316 36.109 35.6546 35.9333 35.9215 35.8096C36.1884 35.6826 36.4977 35.6191 36.8492 35.6191C37.0966 35.6191 37.3245 35.6549 37.5328 35.7266C37.7411 35.7949 37.9218 35.904 38.0748 36.0537C38.2278 36.2035 38.3466 36.3955 38.4313 36.6299C38.5159 36.8643 38.5582 37.1475 38.5582 37.4795V41H37.6549V37.5234C37.6549 37.2467 37.6077 37.0254 37.5133 36.8594C37.4221 36.6934 37.2919 36.5729 37.1227 36.498C36.9534 36.4199 36.7548 36.3809 36.527 36.3809C36.26 36.3809 36.037 36.4281 35.858 36.5225C35.679 36.6169 35.5357 36.7471 35.4283 36.9131C35.3209 37.0791 35.2428 37.2695 35.1939 37.4844C35.1484 37.696 35.1256 37.9206 35.1256 38.1582ZM38.5484 37.6602L37.943 37.8457C37.9462 37.556 37.9934 37.2777 38.0846 37.0107C38.179 36.7438 38.3141 36.5062 38.4898 36.2979C38.6689 36.0895 38.8886 35.9251 39.149 35.8047C39.4094 35.681 39.7073 35.6191 40.0426 35.6191C40.3258 35.6191 40.5764 35.6566 40.7945 35.7314C41.0159 35.8063 41.2014 35.9219 41.3512 36.0781C41.5042 36.2311 41.6197 36.4281 41.6979 36.6689C41.776 36.9098 41.815 37.1963 41.815 37.5283V41H40.9068V37.5186C40.9068 37.2223 40.8596 36.9928 40.7652 36.8301C40.6741 36.6641 40.5439 36.5485 40.3746 36.4834C40.2086 36.415 40.01 36.3809 39.7789 36.3809C39.5803 36.3809 39.4046 36.415 39.2516 36.4834C39.0986 36.5518 38.97 36.6462 38.8658 36.7666C38.7617 36.8838 38.6819 37.0189 38.6266 37.1719C38.5745 37.3249 38.5484 37.4876 38.5484 37.6602ZM44.3637 35.7168V41H43.4555V35.7168H44.3637ZM43.3871 34.3154C43.3871 34.1689 43.4311 34.0452 43.5189 33.9443C43.6101 33.8434 43.7436 33.793 43.9193 33.793C44.0919 33.793 44.2237 33.8434 44.3148 33.9443C44.4092 34.0452 44.4564 34.1689 44.4564 34.3154C44.4564 34.4554 44.4092 34.5758 44.3148 34.6768C44.2237 34.7744 44.0919 34.8232 43.9193 34.8232C43.7436 34.8232 43.6101 34.7744 43.5189 34.6768C43.4311 34.5758 43.3871 34.4554 43.3871 34.3154ZM49.1291 40.0967V37.377C49.1291 37.1686 49.0868 36.988 49.0021 36.835C48.9208 36.6787 48.7971 36.5583 48.6311 36.4736C48.465 36.389 48.26 36.3467 48.0158 36.3467C47.788 36.3467 47.5878 36.3857 47.4152 36.4639C47.246 36.542 47.1125 36.6445 47.0148 36.7715C46.9204 36.8984 46.8732 37.0352 46.8732 37.1816H45.9699C45.9699 36.9928 46.0187 36.8057 46.1164 36.6201C46.2141 36.4346 46.354 36.2669 46.5363 36.1172C46.7219 35.9642 46.9432 35.8438 47.2004 35.7559C47.4608 35.6647 47.7505 35.6191 48.0695 35.6191C48.4536 35.6191 48.7922 35.6842 49.0852 35.8145C49.3814 35.9447 49.6125 36.1416 49.7785 36.4053C49.9478 36.6657 50.0324 36.9928 50.0324 37.3867V39.8477C50.0324 40.0234 50.0471 40.2106 50.0764 40.4092C50.1089 40.6077 50.1561 40.7786 50.218 40.9219V41H49.2756C49.23 40.8958 49.1942 40.7575 49.1682 40.585C49.1421 40.4092 49.1291 40.2464 49.1291 40.0967ZM49.2854 37.7969L49.2951 38.4316H48.382C48.1249 38.4316 47.8954 38.4528 47.6936 38.4951C47.4917 38.5342 47.3225 38.5944 47.1857 38.6758C47.049 38.7572 46.9449 38.8597 46.8732 38.9834C46.8016 39.1038 46.7658 39.2454 46.7658 39.4082C46.7658 39.5742 46.8033 39.7256 46.8781 39.8623C46.953 39.999 47.0653 40.1081 47.215 40.1895C47.368 40.2676 47.5552 40.3066 47.7766 40.3066C48.0533 40.3066 48.2974 40.248 48.509 40.1309C48.7206 40.0137 48.8882 39.8704 49.0119 39.7012C49.1389 39.5319 49.2072 39.3675 49.217 39.208L49.6027 39.6426C49.5799 39.7793 49.5181 39.9307 49.4172 40.0967C49.3163 40.2627 49.1812 40.4222 49.0119 40.5752C48.8459 40.7249 48.6473 40.8503 48.4162 40.9512C48.1883 41.0488 47.9312 41.0977 47.6447 41.0977C47.2867 41.0977 46.9725 41.0277 46.7023 40.8877C46.4354 40.7477 46.2271 40.5605 46.0773 40.3262C45.9309 40.0885 45.8576 39.8232 45.8576 39.5303C45.8576 39.2471 45.913 38.998 46.0236 38.7832C46.1343 38.5651 46.2938 38.3844 46.5021 38.2412C46.7105 38.0947 46.9611 37.984 47.2541 37.9092C47.5471 37.8343 47.8742 37.7969 48.2355 37.7969H49.2854ZM54.7684 33.8906H55.6814L58.0105 39.6865L60.3348 33.8906H61.2527L58.3621 41H57.6492L54.7684 33.8906ZM54.4705 33.8906H55.2762L55.408 38.2266V41H54.4705V33.8906ZM60.74 33.8906H61.5457V41H60.6082V38.2266L60.74 33.8906ZM63.025 38.417V38.3047C63.025 37.9238 63.0803 37.5706 63.191 37.2451C63.3017 36.9163 63.4612 36.6315 63.6695 36.3906C63.8779 36.1465 64.1301 35.9577 64.4264 35.8242C64.7226 35.6875 65.0546 35.6191 65.4225 35.6191C65.7936 35.6191 66.1272 35.6875 66.4234 35.8242C66.7229 35.9577 66.9768 36.1465 67.1852 36.3906C67.3967 36.6315 67.5579 36.9163 67.6686 37.2451C67.7792 37.5706 67.8346 37.9238 67.8346 38.3047V38.417C67.8346 38.7979 67.7792 39.151 67.6686 39.4766C67.5579 39.8021 67.3967 40.0869 67.1852 40.3311C66.9768 40.5719 66.7245 40.7607 66.4283 40.8975C66.1354 41.0309 65.8033 41.0977 65.4322 41.0977C65.0611 41.0977 64.7275 41.0309 64.4313 40.8975C64.135 40.7607 63.8811 40.5719 63.6695 40.3311C63.4612 40.0869 63.3017 39.8021 63.191 39.4766C63.0803 39.151 63.025 38.7979 63.025 38.417ZM63.9283 38.3047V38.417C63.9283 38.6807 63.9592 38.9297 64.0211 39.1641C64.0829 39.3952 64.1757 39.6003 64.2994 39.7793C64.4264 39.9583 64.5842 40.0999 64.773 40.2041C64.9619 40.305 65.1816 40.3555 65.4322 40.3555C65.6796 40.3555 65.8961 40.305 66.0816 40.2041C66.2704 40.0999 66.4267 39.9583 66.5504 39.7793C66.6741 39.6003 66.7669 39.3952 66.8287 39.1641C66.8938 38.9297 66.9264 38.6807 66.9264 38.417V38.3047C66.9264 38.0443 66.8938 37.7985 66.8287 37.5674C66.7669 37.333 66.6725 37.1263 66.5455 36.9473C66.4218 36.765 66.2656 36.6217 66.0768 36.5176C65.8912 36.4134 65.6731 36.3613 65.4225 36.3613C65.1751 36.3613 64.957 36.4134 64.7682 36.5176C64.5826 36.6217 64.4264 36.765 64.2994 36.9473C64.1757 37.1263 64.0829 37.333 64.0211 37.5674C63.9592 37.7985 63.9283 38.0443 63.9283 38.3047ZM70.0707 36.8447V41H69.1674V35.7168H70.0219L70.0707 36.8447ZM69.8559 38.1582L69.4799 38.1436C69.4831 37.7822 69.5368 37.4486 69.641 37.1426C69.7452 36.8333 69.8917 36.5648 70.0805 36.3369C70.2693 36.109 70.4939 35.9333 70.7543 35.8096C71.018 35.6826 71.3093 35.6191 71.6283 35.6191C71.8887 35.6191 72.1231 35.6549 72.3314 35.7266C72.5398 35.7949 72.7172 35.9056 72.8637 36.0586C73.0134 36.2116 73.1273 36.4102 73.2055 36.6543C73.2836 36.8952 73.3227 37.1898 73.3227 37.5381V41H72.4145V37.5283C72.4145 37.2516 72.3738 37.0303 72.2924 36.8643C72.211 36.695 72.0922 36.5729 71.9359 36.498C71.7797 36.4199 71.5876 36.3809 71.3598 36.3809C71.1352 36.3809 70.9301 36.4281 70.7445 36.5225C70.5622 36.6169 70.4044 36.7471 70.2709 36.9131C70.1407 37.0791 70.0381 37.2695 69.9633 37.4844C69.8917 37.696 69.8559 37.9206 69.8559 38.1582ZM75.8762 35.7168V41H74.968V35.7168H75.8762ZM74.8996 34.3154C74.8996 34.1689 74.9436 34.0452 75.0314 33.9443C75.1226 33.8434 75.2561 33.793 75.4318 33.793C75.6044 33.793 75.7362 33.8434 75.8273 33.9443C75.9217 34.0452 75.9689 34.1689 75.9689 34.3154C75.9689 34.4554 75.9217 34.5758 75.8273 34.6768C75.7362 34.7744 75.6044 34.8232 75.4318 34.8232C75.2561 34.8232 75.1226 34.7744 75.0314 34.6768C74.9436 34.5758 74.8996 34.4554 74.8996 34.3154ZM79.7383 35.7168V36.4102H76.8818V35.7168H79.7383ZM77.8486 34.4326H78.752V39.6914C78.752 39.8704 78.7796 40.0055 78.835 40.0967C78.8903 40.1878 78.9619 40.248 79.0498 40.2773C79.1377 40.3066 79.2321 40.3213 79.333 40.3213C79.4079 40.3213 79.486 40.3148 79.5674 40.3018C79.652 40.2855 79.7155 40.2725 79.7578 40.2627L79.7627 41C79.6911 41.0228 79.5967 41.0439 79.4795 41.0635C79.3656 41.0863 79.2272 41.0977 79.0645 41.0977C78.8431 41.0977 78.6396 41.0537 78.4541 40.9658C78.2686 40.8779 78.1204 40.7314 78.0098 40.5264C77.9023 40.318 77.8486 40.0381 77.8486 39.6865V34.4326ZM80.6609 38.417V38.3047C80.6609 37.9238 80.7163 37.5706 80.827 37.2451C80.9376 36.9163 81.0971 36.6315 81.3055 36.3906C81.5138 36.1465 81.7661 35.9577 82.0623 35.8242C82.3585 35.6875 82.6906 35.6191 83.0584 35.6191C83.4295 35.6191 83.7631 35.6875 84.0594 35.8242C84.3589 35.9577 84.6128 36.1465 84.8211 36.3906C85.0327 36.6315 85.1938 36.9163 85.3045 37.2451C85.4152 37.5706 85.4705 37.9238 85.4705 38.3047V38.417C85.4705 38.7979 85.4152 39.151 85.3045 39.4766C85.1938 39.8021 85.0327 40.0869 84.8211 40.3311C84.6128 40.5719 84.3605 40.7607 84.0643 40.8975C83.7713 41.0309 83.4393 41.0977 83.0682 41.0977C82.6971 41.0977 82.3634 41.0309 82.0672 40.8975C81.771 40.7607 81.5171 40.5719 81.3055 40.3311C81.0971 40.0869 80.9376 39.8021 80.827 39.4766C80.7163 39.151 80.6609 38.7979 80.6609 38.417ZM81.5643 38.3047V38.417C81.5643 38.6807 81.5952 38.9297 81.657 39.1641C81.7189 39.3952 81.8117 39.6003 81.9353 39.7793C82.0623 39.9583 82.2202 40.0999 82.409 40.2041C82.5978 40.305 82.8175 40.3555 83.0682 40.3555C83.3156 40.3555 83.532 40.305 83.7176 40.2041C83.9064 40.0999 84.0626 39.9583 84.1863 39.7793C84.31 39.6003 84.4028 39.3952 84.4646 39.1641C84.5297 38.9297 84.5623 38.6807 84.5623 38.417V38.3047C84.5623 38.0443 84.5297 37.7985 84.4646 37.5674C84.4028 37.333 84.3084 37.1263 84.1814 36.9473C84.0577 36.765 83.9015 36.6217 83.7127 36.5176C83.5271 36.4134 83.309 36.3613 83.0584 36.3613C82.811 36.3613 82.5929 36.4134 82.4041 36.5176C82.2186 36.6217 82.0623 36.765 81.9353 36.9473C81.8117 37.1263 81.7189 37.333 81.657 37.5674C81.5952 37.7985 81.5643 38.0443 81.5643 38.3047ZM87.7066 36.5469V41H86.8033V35.7168H87.6822L87.7066 36.5469ZM89.357 35.6875L89.3521 36.5273C89.2773 36.5111 89.2057 36.5013 89.1373 36.498C89.0722 36.4915 88.9973 36.4883 88.9127 36.4883C88.7044 36.4883 88.5204 36.5208 88.3609 36.5859C88.2014 36.651 88.0663 36.7422 87.9557 36.8594C87.845 36.9766 87.7571 37.1165 87.692 37.2793C87.6301 37.4388 87.5895 37.6146 87.5699 37.8066L87.316 37.9531C87.316 37.6341 87.3469 37.3346 87.4088 37.0547C87.4739 36.7747 87.5732 36.5273 87.7066 36.3125C87.8401 36.0944 88.0094 35.9251 88.2145 35.8047C88.4228 35.681 88.6702 35.6191 88.9566 35.6191C89.0217 35.6191 89.0966 35.6273 89.1813 35.6436C89.2659 35.6566 89.3245 35.6712 89.357 35.6875ZM91.3734 35.7168V41H90.4652V35.7168H91.3734ZM90.3969 34.3154C90.3969 34.1689 90.4408 34.0452 90.5287 33.9443C90.6199 33.8434 90.7533 33.793 90.9291 33.793C91.1016 33.793 91.2335 33.8434 91.3246 33.9443C91.419 34.0452 91.4662 34.1689 91.4662 34.3154C91.4662 34.4554 91.419 34.5758 91.3246 34.6768C91.2335 34.7744 91.1016 34.8232 90.9291 34.8232C90.7533 34.8232 90.6199 34.7744 90.5287 34.6768C90.4408 34.5758 90.3969 34.4554 90.3969 34.3154ZM93.927 36.8447V41H93.0236V35.7168H93.8781L93.927 36.8447ZM93.7121 38.1582L93.3361 38.1436C93.3394 37.7822 93.3931 37.4486 93.4973 37.1426C93.6014 36.8333 93.7479 36.5648 93.9367 36.3369C94.1255 36.109 94.3501 35.9333 94.6105 35.8096C94.8742 35.6826 95.1656 35.6191 95.4846 35.6191C95.745 35.6191 95.9794 35.6549 96.1877 35.7266C96.396 35.7949 96.5734 35.9056 96.7199 36.0586C96.8697 36.2116 96.9836 36.4102 97.0617 36.6543C97.1398 36.8952 97.1789 37.1898 97.1789 37.5381V41H96.2707V37.5283C96.2707 37.2516 96.23 37.0303 96.1486 36.8643C96.0673 36.695 95.9484 36.5729 95.7922 36.498C95.6359 36.4199 95.4439 36.3809 95.216 36.3809C94.9914 36.3809 94.7863 36.4281 94.6008 36.5225C94.4185 36.6169 94.2606 36.7471 94.1272 36.9131C93.9969 37.0791 93.8944 37.2695 93.8195 37.4844C93.7479 37.696 93.7121 37.9206 93.7121 38.1582ZM102.174 35.7168H102.994V40.8877C102.994 41.3532 102.9 41.7503 102.711 42.0791C102.522 42.4079 102.258 42.6569 101.92 42.8262C101.585 42.9987 101.197 43.085 100.758 43.085C100.576 43.085 100.361 43.0557 100.113 42.9971C99.8691 42.9417 99.6283 42.8457 99.3906 42.709C99.1562 42.5755 98.9593 42.3949 98.7998 42.167L99.2734 41.6299C99.4948 41.8968 99.7259 42.0824 99.9668 42.1865C100.211 42.2907 100.452 42.3428 100.689 42.3428C100.976 42.3428 101.223 42.2891 101.432 42.1816C101.64 42.0742 101.801 41.9147 101.915 41.7031C102.032 41.4948 102.091 41.2376 102.091 40.9316V36.8789L102.174 35.7168ZM98.5361 38.417V38.3145C98.5361 37.9108 98.5833 37.5446 98.6777 37.2158C98.7754 36.8838 98.9137 36.599 99.0928 36.3613C99.2751 36.1237 99.4948 35.9414 99.752 35.8145C100.009 35.6842 100.299 35.6191 100.621 35.6191C100.953 35.6191 101.243 35.6777 101.49 35.7949C101.741 35.9089 101.952 36.0765 102.125 36.2979C102.301 36.516 102.439 36.7796 102.54 37.0889C102.641 37.3981 102.711 37.748 102.75 38.1387V38.5879C102.714 38.9753 102.644 39.3236 102.54 39.6328C102.439 39.9421 102.301 40.2057 102.125 40.4238C101.952 40.6419 101.741 40.8096 101.49 40.9268C101.24 41.0407 100.947 41.0977 100.611 41.0977C100.296 41.0977 100.009 41.0309 99.752 40.8975C99.498 40.764 99.2799 40.5768 99.0977 40.3359C98.9154 40.0951 98.7754 39.8118 98.6777 39.4863C98.5833 39.1576 98.5361 38.8011 98.5361 38.417ZM99.4395 38.3145V38.417C99.4395 38.6807 99.4655 38.9281 99.5176 39.1592C99.5729 39.3903 99.6559 39.5938 99.7666 39.7695C99.8805 39.9453 100.025 40.0837 100.201 40.1846C100.377 40.2822 100.587 40.3311 100.831 40.3311C101.131 40.3311 101.378 40.2676 101.573 40.1406C101.769 40.0137 101.923 39.846 102.037 39.6377C102.154 39.4294 102.245 39.2031 102.311 38.959V37.7822C102.275 37.6032 102.219 37.4307 102.145 37.2646C102.073 37.0954 101.979 36.9456 101.861 36.8154C101.747 36.682 101.606 36.5762 101.437 36.498C101.267 36.4199 101.069 36.3809 100.841 36.3809C100.593 36.3809 100.38 36.4329 100.201 36.5371C100.025 36.638 99.8805 36.778 99.7666 36.957C99.6559 37.1328 99.5729 37.3379 99.5176 37.5723C99.4655 37.8034 99.4395 38.0508 99.4395 38.3145ZM111.172 39.2031C111.172 39.0371 111.146 38.8906 111.094 38.7637C111.046 38.6335 110.958 38.5163 110.831 38.4121C110.707 38.3079 110.534 38.2087 110.313 38.1143C110.095 38.0199 109.818 37.9238 109.483 37.8262C109.131 37.722 108.814 37.6064 108.531 37.4795C108.248 37.3493 108.005 37.2012 107.803 37.0352C107.601 36.8691 107.447 36.6787 107.339 36.4639C107.232 36.249 107.178 36.0033 107.178 35.7266C107.178 35.4499 107.235 35.1943 107.349 34.96C107.463 34.7256 107.626 34.5221 107.838 34.3496C108.052 34.1738 108.308 34.0371 108.604 33.9395C108.9 33.8418 109.231 33.793 109.595 33.793C110.129 33.793 110.582 33.8955 110.953 34.1006C111.327 34.3024 111.612 34.5677 111.807 34.8965C112.003 35.222 112.1 35.5703 112.1 35.9414H111.163C111.163 35.6745 111.106 35.4385 110.992 35.2334C110.878 35.0251 110.705 34.8623 110.474 34.7451C110.243 34.6247 109.95 34.5645 109.595 34.5645C109.26 34.5645 108.983 34.6149 108.765 34.7158C108.547 34.8167 108.384 34.9535 108.277 35.126C108.173 35.2985 108.121 35.4954 108.121 35.7168C108.121 35.8665 108.152 36.0033 108.213 36.127C108.279 36.2474 108.378 36.3597 108.511 36.4639C108.648 36.568 108.821 36.6641 109.029 36.752C109.24 36.8398 109.493 36.9245 109.786 37.0059C110.189 37.1198 110.538 37.2467 110.831 37.3867C111.124 37.5267 111.365 37.6846 111.553 37.8604C111.745 38.0329 111.887 38.2298 111.978 38.4512C112.073 38.6693 112.12 38.9167 112.12 39.1934C112.12 39.4831 112.061 39.7451 111.944 39.9795C111.827 40.2139 111.659 40.4141 111.441 40.5801C111.223 40.7461 110.961 40.8747 110.655 40.9658C110.352 41.0537 110.014 41.0977 109.639 41.0977C109.31 41.0977 108.987 41.0521 108.668 40.9609C108.352 40.8698 108.064 40.7331 107.803 40.5508C107.546 40.3685 107.339 40.1439 107.183 39.877C107.03 39.6068 106.954 39.2943 106.954 38.9395H107.891C107.891 39.1836 107.938 39.3936 108.033 39.5693C108.127 39.7419 108.256 39.8851 108.419 39.999C108.585 40.113 108.772 40.1976 108.98 40.2529C109.192 40.305 109.411 40.3311 109.639 40.3311C109.968 40.3311 110.246 40.2855 110.474 40.1943C110.702 40.1032 110.875 39.973 110.992 39.8037C111.112 39.6344 111.172 39.4342 111.172 39.2031ZM114.869 40.4531L116.338 35.7168H117.305L115.186 41.8154C115.137 41.9456 115.072 42.0856 114.991 42.2354C114.912 42.3883 114.812 42.5332 114.688 42.6699C114.564 42.8066 114.414 42.9173 114.239 43.002C114.066 43.0898 113.859 43.1338 113.619 43.1338C113.547 43.1338 113.456 43.124 113.345 43.1045C113.234 43.085 113.156 43.0687 113.111 43.0557L113.106 42.3232C113.132 42.3265 113.173 42.3298 113.228 42.333C113.287 42.3395 113.327 42.3428 113.35 42.3428C113.555 42.3428 113.729 42.3151 113.872 42.2598C114.016 42.2077 114.136 42.1182 114.234 41.9912C114.335 41.8675 114.421 41.6966 114.493 41.4785L114.869 40.4531ZM113.789 35.7168L115.162 39.8184L115.396 40.7705L114.746 41.1025L112.803 35.7168H113.789ZM121.397 39.5986C121.397 39.4684 121.367 39.348 121.309 39.2373C121.253 39.1234 121.138 39.0208 120.962 38.9297C120.79 38.8353 120.529 38.7539 120.181 38.6855C119.888 38.6237 119.623 38.5505 119.385 38.4658C119.151 38.3812 118.95 38.2786 118.784 38.1582C118.622 38.0378 118.496 37.8962 118.408 37.7334C118.321 37.5706 118.277 37.3802 118.277 37.1621C118.277 36.9538 118.322 36.7568 118.413 36.5713C118.508 36.3857 118.64 36.2214 118.809 36.0781C118.981 35.9349 119.188 35.8226 119.429 35.7412C119.67 35.6598 119.938 35.6191 120.235 35.6191C120.658 35.6191 121.019 35.694 121.319 35.8438C121.618 35.9935 121.848 36.1937 122.007 36.4443C122.167 36.6917 122.246 36.9668 122.246 37.2695H121.343C121.343 37.123 121.299 36.9814 121.211 36.8447C121.127 36.7048 121.001 36.5892 120.835 36.498C120.672 36.4069 120.472 36.3613 120.235 36.3613C119.984 36.3613 119.78 36.4004 119.624 36.4785C119.471 36.5534 119.359 36.6494 119.287 36.7666C119.219 36.8838 119.185 37.0075 119.185 37.1377C119.185 37.2354 119.201 37.3232 119.234 37.4014C119.269 37.4762 119.331 37.5462 119.419 37.6113C119.507 37.6732 119.631 37.7318 119.79 37.7871C119.95 37.8424 120.153 37.8978 120.401 37.9531C120.834 38.0508 121.19 38.168 121.47 38.3047C121.75 38.4414 121.958 38.609 122.095 38.8076C122.232 39.0062 122.3 39.2471 122.3 39.5303C122.3 39.7614 122.251 39.973 122.154 40.165C122.059 40.3571 121.921 40.5231 121.738 40.6631C121.559 40.7998 121.345 40.9072 121.094 40.9854C120.847 41.0602 120.568 41.0977 120.259 41.0977C119.793 41.0977 119.4 41.0146 119.077 40.8486C118.755 40.6826 118.511 40.4678 118.345 40.2041C118.179 39.9404 118.096 39.6621 118.096 39.3691H119.004C119.017 39.6165 119.089 39.8135 119.219 39.96C119.349 40.1032 119.509 40.2057 119.697 40.2676C119.886 40.3262 120.073 40.3555 120.259 40.3555C120.506 40.3555 120.713 40.3229 120.879 40.2578C121.048 40.1927 121.177 40.1032 121.265 39.9893C121.353 39.8753 121.397 39.7451 121.397 39.5986ZM125.898 35.7168V36.4102H123.042V35.7168H125.898ZM124.009 34.4326H124.912V39.6914C124.912 39.8704 124.94 40.0055 124.995 40.0967C125.05 40.1878 125.122 40.248 125.21 40.2773C125.298 40.3066 125.392 40.3213 125.493 40.3213C125.568 40.3213 125.646 40.3148 125.728 40.3018C125.812 40.2855 125.876 40.2725 125.918 40.2627L125.923 41C125.851 41.0228 125.757 41.0439 125.64 41.0635C125.526 41.0863 125.387 41.0977 125.225 41.0977C125.003 41.0977 124.8 41.0537 124.614 40.9658C124.429 40.8779 124.281 40.7314 124.17 40.5264C124.062 40.318 124.009 40.0381 124.009 39.6865V34.4326ZM129.35 41.0977C128.983 41.0977 128.649 41.0358 128.349 40.9121C128.053 40.7852 127.798 40.6077 127.583 40.3799C127.371 40.152 127.208 39.8818 127.095 39.5693C126.981 39.2568 126.924 38.915 126.924 38.5439V38.3389C126.924 37.9092 126.987 37.5267 127.114 37.1914C127.241 36.8529 127.414 36.5664 127.632 36.332C127.85 36.0977 128.097 35.9202 128.374 35.7998C128.651 35.6794 128.937 35.6191 129.233 35.6191C129.611 35.6191 129.936 35.6842 130.21 35.8145C130.486 35.9447 130.713 36.127 130.888 36.3613C131.064 36.5924 131.194 36.8659 131.279 37.1816C131.364 37.4941 131.406 37.8359 131.406 38.207V38.6123H127.461V37.875H130.503V37.8066C130.49 37.5723 130.441 37.3444 130.356 37.123C130.275 36.9017 130.145 36.7194 129.966 36.5762C129.787 36.4329 129.542 36.3613 129.233 36.3613C129.028 36.3613 128.839 36.4053 128.667 36.4932C128.494 36.5778 128.346 36.7048 128.222 36.874C128.099 37.0433 128.003 37.25 127.934 37.4941C127.866 37.7383 127.832 38.0199 127.832 38.3389V38.5439C127.832 38.7946 127.866 39.0306 127.934 39.252C128.006 39.4701 128.109 39.6621 128.242 39.8281C128.379 39.9941 128.543 40.1243 128.735 40.2188C128.93 40.3132 129.152 40.3604 129.399 40.3604C129.718 40.3604 129.988 40.2952 130.21 40.165C130.431 40.0348 130.625 39.8607 130.791 39.6426L131.338 40.0771C131.224 40.2497 131.079 40.4141 130.903 40.5703C130.727 40.7266 130.511 40.8535 130.254 40.9512C130 41.0488 129.699 41.0977 129.35 41.0977ZM133.559 36.7666V41H132.651V35.7168H133.51L133.559 36.7666ZM133.374 38.1582L132.954 38.1436C132.957 37.7822 133.004 37.4486 133.095 37.1426C133.186 36.8333 133.322 36.5648 133.501 36.3369C133.68 36.109 133.903 35.9333 134.17 35.8096C134.436 35.6826 134.746 35.6191 135.097 35.6191C135.345 35.6191 135.573 35.6549 135.781 35.7266C135.989 35.7949 136.17 35.904 136.323 36.0537C136.476 36.2035 136.595 36.3955 136.679 36.6299C136.764 36.8643 136.806 37.1475 136.806 37.4795V41H135.903V37.5234C135.903 37.2467 135.856 37.0254 135.761 36.8594C135.67 36.6934 135.54 36.5729 135.371 36.498C135.201 36.4199 135.003 36.3809 134.775 36.3809C134.508 36.3809 134.285 36.4281 134.106 36.5225C133.927 36.6169 133.784 36.7471 133.676 36.9131C133.569 37.0791 133.491 37.2695 133.442 37.4844C133.396 37.696 133.374 37.9206 133.374 38.1582ZM136.796 37.6602L136.191 37.8457C136.194 37.556 136.241 37.2777 136.333 37.0107C136.427 36.7438 136.562 36.5062 136.738 36.2979C136.917 36.0895 137.137 35.9251 137.397 35.8047C137.657 35.681 137.955 35.6191 138.291 35.6191C138.574 35.6191 138.824 35.6566 139.043 35.7314C139.264 35.8063 139.449 35.9219 139.599 36.0781C139.752 36.2311 139.868 36.4281 139.946 36.6689C140.024 36.9098 140.063 37.1963 140.063 37.5283V41H139.155V37.5186C139.155 37.2223 139.108 36.9928 139.013 36.8301C138.922 36.6641 138.792 36.5485 138.623 36.4834C138.457 36.415 138.258 36.3809 138.027 36.3809C137.828 36.3809 137.653 36.415 137.5 36.4834C137.347 36.5518 137.218 36.6462 137.114 36.7666C137.01 36.8838 136.93 37.0189 136.875 37.1719C136.823 37.3249 136.796 37.4876 136.796 37.6602Z" fill="#696969"/>
</svg>
